<svg width="631" height="135" viewBox="0 0 631 135" fill="none" xmlns="http://www.w3.org/2000/svg">
<path fill-rule="evenodd" clip-rule="evenodd" d="M67.5 135C104.779 135 135 104.779 135 67.5C135 30.2208 104.779 0 67.5 0C30.2208 0 0 30.2208 0 67.5C0 104.779 30.2208 135 67.5 135ZM67.5 124.875C99.1873 124.875 124.875 99.1873 124.875 67.5C124.875 35.8127 99.1873 10.125 67.5 10.125C35.8127 10.125 10.125 35.8127 10.125 67.5C10.125 99.1873 35.8127 124.875 67.5 124.875Z" fill="#F97316"/>
<path d="M102.263 113.738C57.1725 102.397 37.35 46.4625 33.4125 20.25C33.4125 19.4625 35.37 17.0775 43.2 15.1875C54 82.4175 93.2625 103.162 111.375 104.963C110.925 105.413 108.743 108.338 102.263 113.738Z" fill="#F97316"/>
<path d="M79.65 10.4625C62.64 47.9925 25.9875 58.275 9.78751 58.725C9.11251 59.175 7.96501 61.83 8.77501 68.85C56.835 66.96 82.35 31.1625 89.1 13.5C88.7625 12.9375 86.4 11.5425 79.65 10.4625Z" fill="#F97316"/>
<path d="M58.8719 125.251C74.0243 86.933 110.13 74.8686 126.288 73.6261C126.94 73.1436 127.956 70.4356 126.804 63.4636C78.8939 67.7041 55.1618 104.708 49.2846 122.679C49.6492 123.225 52.0772 124.502 58.8719 125.251Z" fill="#F97316"/>
<path d="M112.725 29.7C64.935 50.76 30.9375 87.3 19.9125 102.938C19.35 103.387 19.98 105.57 27 110.7C60.21 67.77 101.588 44.8875 118.125 38.8125C118.238 38.025 117.315 35.1 112.725 29.7Z" fill="#F97316"/>
<path d="M180.96 56.14V96.3H172V39.5H179.36L211.52 80.54V39.58H220.56V96.3H212.72L180.96 56.14Z" fill="#F97316"/>
<path d="M277.968 81.66C277.968 84.7 277.168 87.3134 275.568 89.5C274.021 91.6867 271.915 93.3667 269.248 94.54C266.581 95.7134 263.648 96.3 260.448 96.3H233.328V39.5H262.608C265.275 39.5 267.568 40.22 269.488 41.66C271.461 43.0467 272.955 44.86 273.968 47.1C275.035 49.2867 275.568 51.58 275.568 53.98C275.568 56.7534 274.848 59.3667 273.408 61.82C272.021 64.22 270.021 66.0067 267.408 67.18C270.661 68.14 273.221 69.9 275.088 72.46C277.008 74.9667 277.968 78.0334 277.968 81.66ZM268.768 79.98C268.768 78.38 268.421 76.94 267.728 75.66C267.088 74.3267 266.181 73.26 265.008 72.46C263.888 71.6067 262.555 71.18 261.008 71.18H242.288V88.54H260.448C262.048 88.54 263.461 88.1667 264.688 87.42C265.968 86.62 266.955 85.58 267.648 84.3C268.395 82.9667 268.768 81.5267 268.768 79.98ZM242.288 47.26V63.98H258.768C260.261 63.98 261.595 63.6334 262.768 62.94C263.941 62.1934 264.875 61.2067 265.568 59.98C266.261 58.7 266.608 57.26 266.608 55.66C266.608 54.0067 266.288 52.5667 265.648 51.34C265.008 50.06 264.128 49.0734 263.008 48.38C261.941 47.6334 260.688 47.26 259.248 47.26H242.288Z" fill="#F97316"/>
<path d="M302.541 39.5H311.021L333.101 96.3H323.661L317.661 80.86H295.741L289.821 96.3H280.301L302.541 39.5ZM315.901 74.22L306.781 49.34L297.341 74.22H315.901Z" fill="#F97316"/>
<path d="M396.649 47.42H377.769V96.3H368.729V47.42H349.769V39.5H396.649V47.42Z" fill="#F97316"/>
<path d="M421.353 62.06C417.94 62.1134 414.9 62.8867 412.233 64.38C409.62 65.8734 407.753 67.98 406.633 70.7V96.3H397.833V54.46H405.993V63.82C407.433 60.94 409.326 58.6467 411.673 56.94C414.02 55.18 416.5 54.22 419.113 54.06C419.646 54.06 420.073 54.06 420.393 54.06C420.766 54.06 421.086 54.0867 421.353 54.14V62.06Z" fill="#F97316"/>
<path d="M424.637 84.06C424.637 81.3934 425.384 79.0734 426.877 77.1C428.424 75.0734 430.53 73.5267 433.197 72.46C435.864 71.34 438.957 70.78 442.477 70.78C444.344 70.78 446.237 70.9134 448.157 71.18C450.13 71.4467 451.864 71.8734 453.357 72.46V69.82C453.357 66.8867 452.477 64.5934 450.717 62.94C448.957 61.2867 446.424 60.46 443.117 60.46C440.77 60.46 438.557 60.8867 436.477 61.74C434.397 62.54 432.184 63.6867 429.837 65.18L426.877 59.26C429.65 57.3934 432.424 56.0067 435.197 55.1C438.024 54.1934 440.984 53.74 444.077 53.74C449.677 53.74 454.077 55.2334 457.277 58.22C460.53 61.1534 462.157 65.34 462.157 70.78V86.38C462.157 87.3934 462.317 88.1134 462.637 88.54C463.01 88.9667 463.624 89.2067 464.477 89.26V96.3C463.677 96.46 462.957 96.5667 462.317 96.62C461.677 96.6734 461.144 96.7 460.717 96.7C458.85 96.7 457.437 96.2467 456.477 95.34C455.517 94.4334 454.957 93.3667 454.797 92.14L454.557 89.74C452.744 92.0867 450.424 93.9 447.597 95.18C444.77 96.46 441.917 97.1 439.037 97.1C436.264 97.1 433.784 96.54 431.597 95.42C429.41 94.2467 427.704 92.6734 426.477 90.7C425.25 88.7267 424.637 86.5134 424.637 84.06ZM451.277 86.62C451.917 85.9267 452.424 85.2334 452.797 84.54C453.17 83.8467 453.357 83.2334 453.357 82.7V77.9C451.864 77.3134 450.29 76.8867 448.637 76.62C446.984 76.3 445.357 76.14 443.757 76.14C440.557 76.14 437.944 76.78 435.917 78.06C433.944 79.34 432.957 81.1 432.957 83.34C432.957 84.5667 433.277 85.74 433.917 86.86C434.61 87.98 435.57 88.8867 436.797 89.58C438.077 90.2734 439.65 90.62 441.517 90.62C443.437 90.62 445.277 90.2467 447.037 89.5C448.797 88.7534 450.21 87.7934 451.277 86.62Z" fill="#F97316"/>
<path d="M491.793 97.1C488.54 97.1 485.58 96.54 482.913 95.42C480.3 94.2467 478.033 92.6467 476.113 90.62C474.193 88.5934 472.7 86.2734 471.633 83.66C470.62 81.0467 470.113 78.2734 470.113 75.34C470.113 71.3934 470.993 67.7934 472.753 64.54C474.566 61.2867 477.073 58.6734 480.273 56.7C483.526 54.7267 487.366 53.74 491.793 53.74C496.06 53.74 499.766 54.7 502.913 56.62C506.113 58.4867 508.46 60.9934 509.953 64.14L501.393 66.86C500.433 65.1 499.073 63.74 497.313 62.78C495.606 61.7667 493.713 61.26 491.633 61.26C489.286 61.26 487.153 61.8734 485.233 63.1C483.366 64.2734 481.873 65.9267 480.753 68.06C479.686 70.14 479.153 72.5667 479.153 75.34C479.153 78.0067 479.713 80.4334 480.833 82.62C481.953 84.7534 483.446 86.46 485.313 87.74C487.233 88.9667 489.366 89.58 491.713 89.58C493.153 89.58 494.54 89.34 495.873 88.86C497.26 88.3267 498.46 87.6334 499.473 86.78C500.486 85.8734 501.206 84.8867 501.633 83.82L510.273 86.38C509.366 88.46 508.006 90.3 506.193 91.9C504.433 93.5 502.326 94.78 499.873 95.74C497.473 96.6467 494.78 97.1 491.793 97.1Z" fill="#F97316"/>
<path d="M546.641 96.3L533.201 77.02L526.321 83.58V96.3H517.521V37.9H526.321V74.7L545.681 54.54H555.121L538.881 72.06L556.001 96.3H546.641Z" fill="#F97316"/>
<path d="M578.121 97.1C574.868 97.1 571.908 96.54 569.241 95.42C566.628 94.2467 564.361 92.6734 562.441 90.7C560.521 88.6734 559.028 86.38 557.961 83.82C556.948 81.2067 556.441 78.4334 556.441 75.5C556.441 71.5534 557.348 67.9534 559.161 64.7C560.975 61.3934 563.508 58.7534 566.761 56.78C570.015 54.7534 573.828 53.74 578.201 53.74C582.575 53.74 586.335 54.7534 589.481 56.78C592.681 58.7534 595.161 61.3667 596.921 64.62C598.681 67.8734 599.561 71.3667 599.561 75.1C599.561 75.74 599.535 76.3534 599.481 76.94C599.428 77.4734 599.375 77.9267 599.321 78.3H565.801C565.961 80.7534 566.628 82.9134 567.801 84.78C569.028 86.5934 570.575 88.0334 572.441 89.1C574.308 90.1134 576.308 90.62 578.441 90.62C580.788 90.62 583.001 90.0334 585.081 88.86C587.215 87.6867 588.655 86.14 589.401 84.22L596.921 86.38C596.015 88.4067 594.628 90.2467 592.761 91.9C590.948 93.5 588.788 94.78 586.281 95.74C583.775 96.6467 581.055 97.1 578.121 97.1ZM565.561 72.46H590.841C590.681 70.06 589.988 67.9534 588.761 66.14C587.588 64.2734 586.068 62.8334 584.201 61.82C582.388 60.7534 580.361 60.22 578.121 60.22C575.935 60.22 573.908 60.7534 572.041 61.82C570.228 62.8334 568.735 64.2734 567.561 66.14C566.388 67.9534 565.721 70.06 565.561 72.46Z" fill="#F97316"/>
<path d="M630.259 62.06C626.846 62.1134 623.806 62.8867 621.139 64.38C618.526 65.8734 616.659 67.98 615.539 70.7V96.3H606.739V54.46H614.899V63.82C616.339 60.94 618.233 58.6467 620.579 56.94C622.926 55.18 625.406 54.22 628.019 54.06C628.553 54.06 628.979 54.06 629.299 54.06C629.673 54.06 629.993 54.0867 630.259 54.14V62.06Z" fill="#F97316"/>
</svg>
